<svg width="1574" height="231" viewBox="0 0 1574 231" fill="none" xmlns="http://www.w3.org/2000/svg">
<path d="M127.454 219.493C112.508 204.549 112.508 180.319 127.454 165.374L197.812 95.0199C203.791 89.0421 213.483 89.0421 219.461 95.0199C228.429 103.987 242.967 103.987 251.935 95.0199C260.902 86.0532 260.902 71.5153 251.935 62.5486C228.022 38.6374 189.252 38.6374 165.339 62.5486L94.9803 132.903C70.2796 157.602 64.135 193.83 76.5466 224.265C31.9234 208.28 0 165.618 0 115.5C0 51.7111 51.7144 0 115.507 0H229.141C224.293 8.7333 225.577 19.957 232.992 27.3714C241.959 36.3381 256.498 36.3381 265.465 27.3714L281.161 11.677C296.106 -3.26752 320.337 -3.26752 335.283 11.677C350.228 26.6215 350.228 50.8513 335.283 65.7957L264.924 136.15C258.946 142.128 249.253 142.128 243.275 136.15C234.308 127.183 219.769 127.183 210.802 136.15C201.834 145.117 201.834 159.655 210.802 168.621C234.714 192.533 273.485 192.533 297.397 168.621L367.756 98.267C392.429 73.5952 398.588 37.4202 386.231 7.00626C430.462 23.1976 462.029 65.6626 462.029 115.5C462.029 179.289 410.315 231 346.522 231H233.689C238.426 222.291 237.111 211.165 229.745 203.799C220.777 194.832 206.238 194.832 197.271 203.799L181.576 219.493C166.63 234.438 142.399 234.438 127.454 219.493Z" fill="black"/>
<path d="M602.638 73.51C602.898 72.2967 603.375 71.43 604.068 70.91C604.848 70.3033 605.715 70 606.668 70H623.699C624.479 70 625.129 70.3033 625.649 70.91C626.256 71.43 626.559 72.08 626.559 72.86L626.429 73.9L609.658 156.06C609.485 157.273 608.748 158.4 607.448 159.44C606.235 160.48 604.805 161 603.158 161H592.367C590.72 161 589.334 160.523 588.207 159.57C587.08 158.53 586.3 157.36 585.867 156.06L576.116 126.68L566.366 156.06C565.932 157.36 565.152 158.53 564.025 159.57C562.899 160.523 561.512 161 559.865 161H549.074C547.428 161 545.954 160.48 544.654 159.44C543.441 158.4 542.747 157.273 542.574 156.06L525.803 73.9L525.673 72.86C525.673 72.08 525.933 71.43 526.453 70.91C527.06 70.3033 527.753 70 528.533 70H545.564C546.518 70 547.341 70.3033 548.034 70.91C548.814 71.43 549.335 72.2967 549.595 73.51L557.915 117.45L565.586 93.92C566.452 91.4067 567.926 90.15 570.006 90.15H582.227C584.307 90.15 585.78 91.4067 586.647 93.92L594.317 117.45L602.638 73.51Z" fill="black"/>
<path d="M708.109 68.7C716.343 68.7 723.45 70.26 729.43 73.38C735.411 76.5 740.004 80.7467 743.211 86.12C746.505 91.4067 748.325 97.3433 748.672 103.93C748.845 106.357 748.932 110.257 748.932 115.63C748.932 120.917 748.845 124.73 748.672 127.07C748.325 133.657 746.505 139.637 743.211 145.01C740.004 150.297 735.411 154.5 729.43 157.62C723.45 160.74 716.343 162.3 708.109 162.3C699.875 162.3 692.768 160.74 686.788 157.62C680.807 154.5 676.17 150.297 672.877 145.01C669.67 139.637 667.893 133.657 667.546 127.07C667.373 122.39 667.286 118.577 667.286 115.63C667.286 112.683 667.373 108.783 667.546 103.93C667.893 97.3433 669.67 91.4067 672.877 86.12C676.17 80.7467 680.807 76.5 686.788 73.38C692.768 70.26 699.875 68.7 708.109 68.7ZM724.62 104.58C724.187 99.9867 722.583 96.3467 719.81 93.66C717.123 90.8867 713.223 89.5 708.109 89.5C702.995 89.5 699.052 90.8867 696.278 93.66C693.591 96.3467 692.031 99.9867 691.598 104.58C691.338 107.44 691.208 111.037 691.208 115.37C691.208 119.617 691.338 123.3 691.598 126.42C692.031 131.013 693.591 134.697 696.278 137.47C699.052 140.157 702.995 141.5 708.109 141.5C713.223 141.5 717.123 140.157 719.81 137.47C722.583 134.697 724.187 131.013 724.62 126.42C724.88 123.3 725.01 119.617 725.01 115.37C725.01 111.037 724.88 107.44 724.62 104.58Z" fill="black"/>
<path d="M835.098 70C846.712 70 855.726 72.5133 862.139 77.54C868.553 82.48 871.76 89.89 871.76 99.77C871.76 112.337 866.603 121.003 856.289 125.77L872.41 156.71C872.67 157.23 872.8 157.707 872.8 158.14C872.8 158.92 872.497 159.613 871.89 160.22C871.37 160.74 870.72 161 869.94 161H852.259C850.699 161 849.528 160.697 848.748 160.09C847.968 159.397 847.318 158.53 846.798 157.49L832.367 129.67H820.407V157.49C820.407 158.443 820.06 159.267 819.367 159.96C818.673 160.653 817.85 161 816.896 161H799.865C798.912 161 798.089 160.653 797.395 159.96C796.702 159.267 796.355 158.443 796.355 157.49V73.51C796.355 72.5567 796.702 71.7333 797.395 71.04C798.089 70.3467 798.912 70 799.865 70H835.098ZM835.098 109.39C843.505 109.39 847.708 106.183 847.708 99.77C847.708 93.3567 843.505 90.15 835.098 90.15H820.407V109.39H835.098Z" fill="black"/>
<path d="M998.298 106.27C998.472 111.123 998.558 114.243 998.558 115.63C998.558 117.017 998.472 120.05 998.298 124.73C998.038 131.837 996.175 138.12 992.708 143.58C989.328 149.04 984.648 153.33 978.667 156.45C972.687 159.483 965.753 161 957.866 161H922.764C921.81 161 920.987 160.653 920.294 159.96C919.6 159.267 919.253 158.443 919.253 157.49V73.51C919.253 72.5567 919.6 71.7333 920.294 71.04C920.987 70.3467 921.81 70 922.764 70H957.216C965.103 70 972.08 71.56 978.147 74.68C984.301 77.7133 989.111 82.0033 992.578 87.55C996.132 93.01 998.038 99.25 998.298 106.27ZM943.305 90.8V140.2H957.216C968.137 140.2 973.814 135.217 974.247 125.25C974.42 120.223 974.507 116.93 974.507 115.37C974.507 113.637 974.42 110.43 974.247 105.75C973.987 100.81 972.34 97.0833 969.307 94.57C966.36 92.0567 962.113 90.8 956.566 90.8H943.305Z" fill="black"/>
<path d="M1066.64 126.42C1066.98 130.927 1068.41 134.567 1070.93 137.34C1073.53 140.113 1077.56 141.5 1083.02 141.5C1088.22 141.5 1091.99 140.503 1094.33 138.51C1096.67 136.517 1098.32 134.09 1099.27 131.23C1099.79 129.757 1100.31 128.76 1100.83 128.24C1101.35 127.72 1102.3 127.46 1103.69 127.46H1120.72C1121.5 127.46 1122.15 127.763 1122.67 128.37C1123.28 128.89 1123.58 129.54 1123.58 130.32C1123.49 136.127 1121.63 141.5 1117.99 146.44C1114.44 151.293 1109.58 155.15 1103.43 158.01C1097.28 160.87 1090.47 162.3 1083.02 162.3C1074.96 162.3 1067.94 160.74 1061.96 157.62C1055.98 154.413 1051.34 150.167 1048.05 144.88C1044.75 139.507 1042.93 133.57 1042.59 127.07C1042.41 122.91 1042.33 119.487 1042.33 116.8C1042.33 113.593 1042.41 109.303 1042.59 103.93C1042.85 97.43 1044.62 91.5367 1047.92 86.25C1051.21 80.8767 1055.85 76.63 1061.83 73.51C1067.89 70.3033 1074.96 68.7 1083.02 68.7C1090.47 68.7 1097.28 70.13 1103.43 72.99C1109.58 75.85 1114.44 79.75 1117.99 84.69C1121.63 89.5433 1123.49 94.8733 1123.58 100.68C1123.58 101.46 1123.28 102.153 1122.67 102.76C1122.15 103.28 1121.5 103.54 1120.72 103.54H1103.69C1102.3 103.54 1101.35 103.28 1100.83 102.76C1100.31 102.24 1099.79 101.243 1099.27 99.77C1098.32 96.91 1096.67 94.4833 1094.33 92.49C1091.99 90.4967 1088.22 89.5 1083.02 89.5C1077.56 89.5 1073.53 90.8867 1070.93 93.66C1068.41 96.4333 1066.98 100.073 1066.64 104.58C1066.46 107.527 1066.38 111.167 1066.38 115.5C1066.38 119.66 1066.46 123.3 1066.64 126.42Z" fill="black"/>
<path d="M1242.95 70C1243.9 70 1244.73 70.3467 1245.42 71.04C1246.11 71.7333 1246.46 72.5567 1246.46 73.51V157.49C1246.46 158.443 1246.11 159.267 1245.42 159.96C1244.73 160.653 1243.9 161 1242.95 161H1225.92C1224.96 161 1224.14 160.653 1223.45 159.96C1222.75 159.267 1222.41 158.443 1222.41 157.49V125.64H1193.55V157.49C1193.55 158.443 1193.2 159.267 1192.51 159.96C1191.81 160.653 1190.99 161 1190.04 161H1173C1172.05 161 1171.23 160.697 1170.53 160.09C1169.84 159.397 1169.49 158.53 1169.49 157.49V73.51C1169.49 72.5567 1169.84 71.7333 1170.53 71.04C1171.23 70.3467 1172.05 70 1173 70H1190.04C1190.99 70 1191.81 70.3467 1192.51 71.04C1193.2 71.7333 1193.55 72.5567 1193.55 73.51V104.84H1222.41V73.51C1222.41 72.5567 1222.75 71.7333 1223.45 71.04C1224.14 70.3467 1224.96 70 1225.92 70H1242.95Z" fill="black"/>
<path d="M1379.51 156.19C1379.86 157.057 1380.03 157.707 1380.03 158.14C1380.03 158.92 1379.73 159.613 1379.12 160.22C1378.6 160.74 1377.95 161 1377.17 161H1360.79C1359.32 161 1358.15 160.697 1357.28 160.09C1356.5 159.397 1355.98 158.617 1355.72 157.75L1352.08 146.96H1317.5L1313.86 157.75C1313.6 158.617 1313.03 159.397 1312.17 160.09C1311.39 160.697 1310.26 161 1308.79 161H1292.41C1291.63 161 1290.93 160.74 1290.33 160.22C1289.81 159.613 1289.55 158.92 1289.55 158.14C1289.55 157.707 1289.72 157.057 1290.07 156.19L1318.41 74.29C1318.84 73.0767 1319.53 72.08 1320.49 71.3C1321.44 70.4333 1322.7 70 1324.26 70H1345.32C1346.88 70 1348.14 70.4333 1349.09 71.3C1350.04 72.08 1350.74 73.0767 1351.17 74.29L1379.51 156.19ZM1345.32 126.81L1334.79 95.61L1324.26 126.81H1345.32Z" fill="black"/>
<path d="M1426.55 161C1425.59 161 1424.77 160.653 1424.08 159.96C1423.38 159.267 1423.04 158.443 1423.04 157.49V73.51C1423.04 72.5567 1423.38 71.7333 1424.08 71.04C1424.77 70.3467 1425.59 70 1426.55 70H1443.58C1444.53 70 1445.35 70.3467 1446.05 71.04C1446.74 71.7333 1447.09 72.5567 1447.09 73.51V157.49C1447.09 158.443 1446.74 159.267 1446.05 159.96C1445.35 160.653 1444.53 161 1443.58 161H1426.55Z" fill="black"/>
<path d="M1556.97 161C1555.67 161 1554.54 160.697 1553.59 160.09C1552.64 159.397 1551.99 158.703 1551.64 158.01L1521.87 113.55V157.49C1521.87 158.443 1521.52 159.267 1520.83 159.96C1520.13 160.653 1519.31 161 1518.36 161H1501.33C1500.37 161 1499.55 160.653 1498.86 159.96C1498.16 159.267 1497.82 158.443 1497.82 157.49V73.51C1497.82 72.5567 1498.16 71.7333 1498.86 71.04C1499.55 70.3467 1500.37 70 1501.33 70H1514.85C1516.15 70 1517.27 70.3467 1518.23 71.04C1519.18 71.6467 1519.83 72.2967 1520.18 72.99L1549.95 117.45V73.51C1549.95 72.5567 1550.3 71.7333 1550.99 71.04C1551.68 70.3467 1552.51 70 1553.46 70H1570.49C1571.44 70 1572.27 70.3467 1572.96 71.04C1573.65 71.7333 1574 72.5567 1574 73.51V157.49C1574 158.443 1573.65 159.267 1572.96 159.96C1572.27 160.653 1571.44 161 1570.49 161H1556.97Z" fill="black"/>
</svg>
