<svg width="463" height="231" viewBox="0 0 463 231" fill="none" xmlns="http://www.w3.org/2000/svg">
<path d="M127.454 219.493C112.508 204.549 112.508 180.319 127.454 165.374L197.812 95.0199C203.791 89.0421 213.483 89.0421 219.461 95.0199C228.429 103.987 242.967 103.987 251.935 95.0199C260.902 86.0532 260.902 71.5153 251.935 62.5486C228.022 38.6374 189.252 38.6374 165.339 62.5486L94.9803 132.903C70.2796 157.602 64.135 193.83 76.5466 224.265C31.9234 208.28 0 165.618 0 115.5C0 51.7111 51.7144 0 115.507 0H229.141C224.293 8.7333 225.577 19.957 232.992 27.3714C241.959 36.3381 256.498 36.3381 265.465 27.3714L281.161 11.677C296.106 -3.26752 320.337 -3.26752 335.283 11.677C350.228 26.6215 350.228 50.8513 335.283 65.7957L264.924 136.15C258.946 142.128 249.253 142.128 243.275 136.15C234.308 127.183 219.769 127.183 210.802 136.15C201.834 145.117 201.834 159.655 210.802 168.621C234.714 192.533 273.485 192.533 297.397 168.621L367.756 98.267C392.429 73.5952 398.588 37.4202 386.231 7.00626C430.462 23.1976 462.029 65.6626 462.029 115.5C462.029 179.289 410.315 231 346.522 231H233.689C238.426 222.291 237.111 211.165 229.745 203.799C220.777 194.832 206.238 194.832 197.271 203.799L181.576 219.493C166.63 234.438 142.399 234.438 127.454 219.493Z" fill="white"/>
</svg>
